<svg
			width="20"
			height="20"
			viewBox="0 0 20 20"
			fill="none"
			xmlns="http://www.w3.org/2000/svg"
		>
			<path
				d="M10.0013 18.9583C5.05964 18.9583 1.04297 14.9417 1.04297 10C1.04297 5.05834 5.05964 1.04167 10.0013 1.04167C14.943 1.04167 18.9596 5.05834 18.9596 10C18.9596 14.9417 14.943 18.9583 10.0013 18.9583ZM10.0013 2.29167C5.7513 2.29167 2.29297 5.75001 2.29297 10C2.29297 14.25 5.7513 17.7083 10.0013 17.7083C14.2513 17.7083 17.7096 14.25 17.7096 10C17.7096 5.75001 14.2513 2.29167 10.0013 2.29167Z"
				fill="#1B1B1E"
			/>
			<path
				d="M7.64245 12.9833C7.48411 12.9833 7.32578 12.925 7.20078 12.8C6.95911 12.5583 6.95911 12.1583 7.20078 11.9167L11.9174 7.2C12.1591 6.95834 12.5591 6.95834 12.8008 7.2C13.0424 7.44167 13.0424 7.84167 12.8008 8.08334L8.08411 12.8C7.96745 12.925 7.80078 12.9833 7.64245 12.9833Z"
				fill="#1B1B1E"
			/>
			<path
				d="M12.3591 12.9833C12.2008 12.9833 12.0424 12.925 11.9174 12.8L7.20078 8.08334C6.95911 7.84167 6.95911 7.44167 7.20078 7.2C7.44245 6.95834 7.84245 6.95834 8.08411 7.2L12.8008 11.9167C13.0424 12.1583 13.0424 12.5583 12.8008 12.8C12.6758 12.925 12.5174 12.9833 12.3591 12.9833Z"
				fill="#1B1B1E"
			/>
		</svg>