<svg width="588" height="872" viewBox="0 0 588 872" fill="none" xmlns="http://www.w3.org/2000/svg">
<path d="M490.519 871.287C493.517 870.137 495.665 867.622 497.297 863.372C500.392 854.994 503.951 826.317 504.075 808.583L504.112 805.412C504.131 804.038 504.142 802.751 504.161 801.564C504.704 806.176 505.437 813.132 506.403 822.312L507.02 828.088C507.87 837.017 509.543 846.814 510.587 849.06C512.492 853.025 513.304 853.103 521.516 852.718C527.298 852.351 532.5 852.987 540.046 855.02C545.663 856.675 554.174 858.03 559.017 858.03C566.484 858.165 568.426 857.671 572.827 854.511C576.057 851.958 581.26 845.466 581.26 843.059C581.26 842.913 581.241 842.789 581.2 842.673C581.114 842.43 580.968 842.239 580.766 842.112C581.675 840.805 585.283 837.47 587.978 836.058C592.386 833.793 598.577 833.872 612.522 836.388C635.161 840.326 639.259 838.514 652.362 818.706C656.52 812.428 660.892 807.37 663.231 806.131C666.229 804.563 672.475 803.724 684.815 803.23C709.995 802.051 711.893 800.531 713.611 780.026C715.138 761.656 718.776 758.088 741.411 752.817C755.315 749.635 762.568 746.337 766.438 741.414C768.074 739.314 770.462 732.571 771.873 727.281C776.996 707.597 777.318 706.717 780.342 703.921C782.229 702.15 788.206 699.724 794.549 698.137C814.198 692.866 818.57 685.812 815.796 664.058C814.938 657.132 815.435 652.618 817.286 650.517C818.843 648.843 824.258 644.654 829.345 641.173C834.334 637.826 839.731 633.655 841.385 631.858C847.882 624.689 848.694 615.742 844.132 601.98C842.44 597.076 840.659 589.539 840.139 585.178C839.143 575.68 840.273 573 848.863 564.651C864.488 549.695 865.978 541.796 856.782 522.37C850.824 509.806 849.54 502.143 852.508 496.707C853.174 495.352 856.483 490.605 860.727 484.896C867.456 475.911 870.465 468.741 870.465 461.662C870.465 459.573 867.041 451.303 862.999 443.584C856.344 430.41 855.678 428.369 855.177 419.392C854.769 411.624 855.33 406.884 857.478 399.146C859.207 392.771 860.611 382.925 860.996 374.643L861.79 360.462L855.996 349.018C849.847 336.694 849.48 333.474 851.527 310.926C852.864 296.958 851.314 292.383 843.675 287.711C833.143 281.238 828.978 272.834 826.53 253.119C824.693 238.669 821.029 231.413 812.51 225.416C796.537 214.177 794.804 211.283 789.486 186.743C788.288 181.132 786.035 174.73 784.448 172.487C781.248 167.804 780.619 167.418 762.273 158.763L749.761 152.9L742.238 141.534C729.959 123.254 724.214 119.121 703.753 113.91C696.286 111.877 688.647 104.827 682.828 94.5623C676.24 82.7134 668.504 78.9398 646.767 76.9594C634.678 75.9448 630.008 73.5564 618.974 62.7895C606.317 50.5139 600.89 48.0954 582.644 46.6466C566.495 45.5048 562.879 43.9849 550.443 33.0944C545.802 28.9838 540.483 24.9781 538.586 24.1769C536.46 23.2485 526.722 22.3762 518.645 22.028L502.525 21.2643L490.785 13.3502C477.828 4.62358 472.932 2.99882 463.224 4.17059C448.272 5.77664 447.202 11.3098 434.473 152.118C433.35 164.143 431.456 186.436 430.064 203.287L428.941 216.315L428.93 214.372C428.93 204.65 429.443 158.879 430.225 112.042C430.872 63.3585 431.116 24.0272 430.738 20.4669C429.914 13.9566 429.51 13.4063 423.455 10.5798C420.195 9.08233 414.846 6.10234 410.962 3.88607C399.91 -2.63171 393.034 -1.22033 380.317 10.1717C374.108 15.6188 373.992 15.6675 367.27 15.0573C363.276 14.6492 357.281 13.0544 353.897 11.4895C340.667 5.54079 329.664 8.45339 320.255 20.3771C313.215 29.1972 308.11 31.4622 297.451 30.4738C271.409 28.018 267.367 27.988 261.383 30.2604C254.373 33.027 248.085 39.732 241.588 51.3188C238.639 56.6011 235.708 60.3823 234.597 60.8839C233.571 61.4941 226.501 62.0819 218.002 61.9396C196.167 61.6888 191.71 64.2907 181.343 83.451C178.375 89.1376 175.268 93.8697 174.565 94.4799C173.771 95.0789 168.868 96.5988 162.7 97.7219C146.311 100.605 141.629 102.413 134.878 108.515C129.395 113.475 127.8 116.118 124.829 125.152C118.833 143.406 117.373 146.064 111.853 148.958C109.184 150.302 105.472 151.474 103.896 151.474C98.4504 151.474 87.6491 155.517 83.9663 158.931C78.1353 164.367 73.6591 173.577 71.9562 183.569C71.028 188.9 69.6058 194.16 68.9284 195.504C67.4874 198.057 58.1458 203.302 55.0506 203.302C51.3379 203.302 41.5995 210.168 39.2604 214.436C37.6473 217.539 36.7079 223.78 36.0604 235.988C35.0536 255.362 33.3433 259.63 24.6491 264.541C12.7175 271.186 11.5573 277.262 16.913 305.205L19.8435 320.644L15.1428 329.476C12.7924 333.916 9.5737 339.999 7.54144 343.597C3.76136 350.463 3.71271 351.897 4.33024 360.968C4.73819 366.512 6.61326 375.883 8.51827 381.88C10.7601 388.488 12.1075 395.372 12.1075 400.288C12.1075 406.933 11.3814 409.224 6.11175 419.122C2.12582 426.61 0 431.155 0 436.108C0 441.94 2.93798 448.323 9.2144 460.734C17.3958 476.839 18.324 479.46 18.324 486.183C18.324 490.305 17.175 497.946 15.7528 503.228C14.3231 508.586 12.8897 514.722 12.5042 516.762C11.4974 521.685 15.6967 532.673 22.3286 542.803C31.2736 556.337 32.6097 559.013 32.6097 570.727C32.6097 572.15 32.591 573.715 32.561 575.429C32.1756 592.377 33.5192 598.026 40.095 606.974C45.9934 614.772 52.4158 617.4 62.259 616.067C80.0627 613.844 159.908 584.718 220.453 558.369C225.154 556.359 233.238 552.847 241.854 549.104C247.722 546.551 253.853 543.889 259.317 541.53C273.337 535.514 290.089 527.757 296.916 524.283C308.589 518.439 334.136 508.264 341.419 506.156C336.692 509.203 319.121 518.847 266.458 547.741C257.91 552.402 240.686 561.862 228.253 568.732C216.389 575.407 192.511 588.214 173.876 597.877C120.719 625.617 71.6231 656.05 64.4596 665.713C63.4529 667.068 62.5846 668.517 62.9401 670.085C63.5389 672.436 66.8475 674.323 74.052 677.677C86.0248 683.413 87.8025 685.359 88.6746 693.697C89.2173 697.935 90.1267 702.936 90.7742 705.093C92.6605 711.187 100.842 718.345 111.119 722.901C122.77 728.094 125.023 730.389 128.332 740.467C136.378 765.018 142.479 770.173 171.859 777.222C180.523 779.233 183.367 781.516 190.853 792.467C203.095 810.575 211.044 815.461 227.86 815.206C241.214 814.944 245.963 817.16 259.598 830.035C265.129 835.201 272.933 841.535 276.473 843.112C282.72 846.226 292.728 846.866 301.964 844.725C309.682 842.831 314.36 844.328 327.048 852.781C340.297 861.527 347.954 865.327 352.692 865.473C354.541 865.473 359.994 863.694 363.988 862.047C369.403 859.726 374.471 858.603 379.508 858.603C386.152 858.476 388.551 859.202 399.255 864.484C417.463 873.585 419.165 873.634 435.517 865.394C451.232 857.472 451.532 857.48 468.396 866.034C479.235 871.5 485.829 873.087 490.523 871.298L490.519 871.287ZM451.547 852.28C446.277 852.28 438.957 855.103 429.798 860.677C425.659 863.193 420.726 865.233 418.784 865.233C417.178 865.233 410.333 862.564 403.05 858.715C385.178 849.45 382.192 849.285 357.318 856.327C349.679 858.58 344.728 857.004 330.85 847.874C318.87 839.971 311.665 836.74 305.98 836.74C304.577 836.74 299.685 837.679 295.044 838.84L287.016 840.978L278.97 836.953C273.681 834.303 267.132 829.342 261.031 823.352C247.861 810.44 245.443 809.306 228.713 808.243C220.27 807.73 213.84 806.697 211.52 805.476C206.605 802.893 200.969 796.761 195.217 787.727C189.232 778.095 181.009 772.434 169.359 769.911C148.007 765.568 141.229 759.59 134.806 739.441C130.978 727.69 127.381 723.897 113.466 716.855C99.7828 709.959 96.4668 706.002 94.8125 694.618C94.2212 690.372 92.9562 684.869 91.7473 683.057C89.861 679.961 81.4101 674.072 73.3073 670.22C71.7017 669.445 70.1372 668.644 70.0886 667.985C70.0774 667.966 70.0774 667.955 70.0774 667.936C70.0774 666.476 75.579 662.789 81.9416 658.525L91.7099 652.052L93.6336 654.953C94.9772 656.964 98.3605 662.953 100.849 667.45C110.917 686.408 140.286 728.06 149.953 737.075C158.677 745.15 179.359 761.023 186.215 764.906C190.044 767.103 203.843 776.095 215.053 783.534C248.171 805.656 255.765 810.066 273.075 817.284C295.624 826.493 306.98 829.859 328.271 833.651C339.189 835.557 352.236 838.391 357.977 840.113C383.663 847.241 415.165 851.789 428.2 850.232C438.575 848.985 487.267 841.228 492.525 839.978L494.98 839.349L494.224 844.785C493.846 848.304 492.581 854.178 491.402 857.862L489.602 863.956H484.572C480.799 863.956 475.829 862.294 467.408 858.202C460.776 854.942 453.646 852.284 451.539 852.284L451.547 852.28ZM248.04 53.434C251.772 47.7286 257.101 41.1509 259.654 39.1068C264.055 35.8386 265.069 35.6252 275.156 35.7487C281.384 35.7487 290.849 36.2915 296.055 36.7745C309.914 38.3506 313.761 36.8232 325.528 25.0305C337.063 13.4999 339.986 12.6388 351.551 17.4196C355.787 19.1229 362.76 21.2119 366.645 21.6162C374.673 22.4286 378.947 20.5717 388.45 12.126C397.327 4.26044 400.13 4.19306 411.53 11.5345C422.204 18.3929 424.798 21.1969 424.798 25.8204C424.798 28.2264 422.98 29.6714 419.345 30.1556C416.078 30.5337 403.813 31.567 391.941 32.2259C364.399 33.9106 361.596 34.4496 331.805 44.056C277.237 61.4006 265.575 65.4138 242.636 74.7768C211.374 87.4006 196.227 95.0415 177.884 107.489C150.342 125.897 133.845 140.804 119.042 160.642C113.919 167.422 104.993 177.919 99.1428 184.033C76.9788 207.375 65.5113 223.14 53.692 246.519C44.545 264.957 42.262 272.096 36.2775 300.986C28.1148 341.265 25.9104 358.231 24.4694 391.786C22.9724 427.422 23.7246 437.811 30.9667 477.198C33.8672 492.259 37.0597 511.816 38.074 520.813C39.1556 529.479 40.9932 541.53 42.232 546.783C45.5667 562.297 55.597 595.331 58.9991 602.025C60.3801 604.761 62.4311 608.872 61.8922 609.647C61.5142 610.178 58.913 609.793 57.9287 609.647C49.9606 608.64 46.3153 606.154 42.9319 599.404C39.8779 593.534 39.6534 591.977 39.6534 575.781L39.6646 572.405V569.773C39.6646 557.216 39.0471 556.232 28.9606 540.078L26.6027 536.278C18.964 523.781 18.2267 518.121 22.1453 502.626C26.7487 484.42 25.8205 478.599 15.2326 457.948C9.29674 446.339 6.63572 439.144 6.63572 437.16C6.63572 434.973 9.20691 427.759 12.2534 421.421C16.9243 411.923 19.0912 406.079 19.0912 399.812C19.0912 395.073 17.8524 390.071 15.532 383.048C12.0813 372.555 11.4113 367.699 11.2953 359.302C11.1194 348.632 11.4488 347.973 15.0492 342.897C26.2659 327.218 27.6694 319.914 22.9312 301.739C21.0636 294.495 19.5853 286.33 19.5853 283.136C19.5853 276.809 20.6894 275.338 31.4682 267.525C39.1743 261.82 41.9888 254.175 42.2508 238.313C42.3855 231.215 42.6363 224.375 42.7747 223.155C42.7747 222.226 44.661 219.111 47.3782 216.113C50.8776 212.242 53.7033 210.617 60.5186 208.547C67.1731 206.525 70.6837 204.608 73.0415 201.718C76.3687 197.694 76.9788 195.616 78.5058 183.206C79.3853 175.943 86.0397 164.633 91.2308 161.597C93.2518 160.418 99.2288 158.86 104.809 158.067C120.147 156.217 120.599 155.753 129.11 133.119C132.377 124.538 136.161 116.935 137.505 115.486C141.914 110.825 152.532 106.325 163.906 104.303C169.456 103.326 176.099 101.653 178.042 100.309C179.917 99.0509 183.854 93.0648 186.571 87.9846C195.991 69.8014 201.407 66.638 220.697 68.0381C236.004 69.3147 238.807 67.8173 248.052 53.4227L248.04 53.434ZM65.4889 599.692C60.9153 589.622 52.2025 560.758 48.8266 544.518C47.6477 539.187 45.8474 527.6 44.8145 518.682C43.7328 509.252 40.2035 488.86 37.4265 474.574L32.0034 446.871V407.996C32.0034 363.607 32.8754 355.135 42.3406 307.223C48.5684 275.581 50.6867 268.678 59.8936 250.27C70.7922 228.332 79.8344 215.738 100.179 194.089C106.804 187.047 117.777 173.91 124.567 165.273C139.953 145.484 155.193 131.516 178.921 115.43C213.522 92.0128 246.371 78.4194 338.684 49.3159L363.497 41.4504L391.492 39.5074C400.157 38.8485 420.531 37.2649 422.698 36.7707L424.895 36.2204L424.267 99.781C423.889 134.418 423.125 169.436 422.71 176.437C422.13 185.257 421.654 187.676 420.445 187.676C405.022 188.061 382.491 190.802 372.229 193.527C360.518 196.769 334.544 206.798 309.053 217.921L299.034 222.312L291.975 209.681C288.629 203.635 282.577 192.745 279.55 187.657C276.803 182.667 275.092 179.424 274.774 178.788C276.11 177.414 286.668 171.873 300.827 166.011C327.624 154.742 343.029 151.298 383.236 147.547C400.351 146.087 400.351 144.743 400.351 144.23C400.351 143.661 400.351 142.336 384.733 142.336C369.115 142.336 347.134 144.851 331.595 148.449C317.979 151.485 292.451 161.196 281.021 167.688L271.612 173.008L269.474 168.298C268.973 167.126 268.363 165.696 267.734 164.236C266.769 161.983 265.78 159.632 265.084 158.085C263.759 154.72 261.873 152.706 260.047 152.717C259.381 152.728 258.153 153.016 257.408 154.952C256.798 156.363 259.381 163.398 261.17 167.441C263.25 172.431 264.661 176.07 265.039 177.231C264.246 177.755 261.559 179.38 252.67 184.407C226.823 198.937 207.298 215.978 189.371 239.661C176.792 256.53 173.696 261.539 173.562 265.238C173.562 266.806 174.007 267.735 174.898 268.004C175.515 268.199 177.42 268.768 183.06 260.333C199.307 236.142 215.311 218.655 234.952 203.631C250.368 192.044 267.955 182.884 269.766 183.85C270.298 184.767 274.467 192.363 278.827 200.419C283.072 208.292 288.132 217.502 289.861 220.287C291.302 222.552 292.151 224.184 292.424 224.873C291.167 225.715 286.361 228.673 281.312 231.78L280.134 232.495C260.32 244.539 247.408 253.407 242.816 258.128C240.574 260.517 233.725 269.629 227.856 278.045C224.926 282.253 221.774 286.711 219.065 290.534C216.269 294.491 213.949 297.778 212.837 299.414C210.371 302.839 206.561 310.169 204.203 315.354L200.295 324.613L195.344 320.888C188.42 315.53 184.426 313.352 181.563 313.352C180.006 313.352 179.078 313.816 178.809 314.726C178.15 317.095 183.315 321.034 187.765 323.886C189.621 325.126 191.44 326.335 192.986 327.379C195.142 328.809 196.759 329.903 197.297 330.251C197.309 330.299 197.309 330.348 197.309 330.404C197.309 331.516 196.631 335.088 194.988 339.76C191.777 349.257 189.726 360.006 186.545 383.947C185.8 389.809 183.768 399.936 182.027 406.514C180.141 413.245 178.498 423.143 177.985 428.8L177.143 438.608L164.493 437.998C148.8 437.234 145.492 438.56 144.38 439.623C143.886 440.098 143.781 440.589 143.781 440.93C143.781 441.558 143.781 442.738 161.312 443.726L177.461 444.598V464.642C177.461 495.528 180.837 509.862 196.433 545.382C199.932 553.274 201.422 558.287 201.422 559.552V559.68C195.475 564.689 121.4 592.325 74.6284 606.981L69.5422 608.595L65.5001 599.715L65.4889 599.692ZM855.161 371.72C855.027 379.885 853.964 387.342 851.7 395.9C845.936 417.161 847.28 428.044 858.238 448.761C864.196 460.195 864.601 462.332 862.078 469.423L862.067 469.434C861.176 471.998 857.793 477.532 854.668 481.534C845.595 493.375 844.087 497.212 844.667 505.744C845.075 510.978 846.931 516.732 850.7 524.403C856.531 536.435 857.448 543.099 853.979 548.19C852.819 549.998 847.714 555.745 843.324 560.503C837.358 566.722 834.251 571.192 833.537 574.617C832.504 580.555 834.629 595.376 837.964 605.038C842.964 619.77 840.973 624.595 825.411 635.43C819.348 639.694 813.334 644.658 811.417 646.96C807.993 651.063 807.851 651.767 808.921 662.003C810.961 683.147 809.696 685.711 795.567 690.133C773.673 697.077 772.06 698.751 766.839 719.936C761.984 739.755 759.982 741.721 740.053 746.217C724.057 749.759 716.691 753.461 711.912 760.357C708.596 764.992 707.907 767.575 706.979 778.716C705.587 794.822 705.111 795.286 689.834 795.286C674.556 795.286 664.148 797.203 658.347 800.991C655.618 802.848 649.829 809.59 645.708 815.693C641.445 822.02 636.471 828.275 634.626 829.623C631.426 831.877 631.299 831.974 616.882 829.885C609.483 828.822 599.756 827.669 596.312 827.669C587.659 827.669 579.448 832.255 574.343 839.926C567.479 850.479 566.76 850.999 559.017 850.999C555.11 850.999 546.988 849.85 540.932 848.416C534.783 846.986 526.523 845.803 522.5 845.803H515.711L514.929 841.741C514.483 839.169 514.618 837.661 515.325 836.818C516.033 835.976 517.492 835.598 520.034 835.598C521.95 835.598 525.479 834.939 528.02 834.261C530.236 833.565 541.763 831.165 556.034 828.44C577.464 824.415 581.349 823.266 597.645 816.097C626.519 803.211 636.733 797.12 688.681 761.746C711.908 745.861 715.804 742.672 740.708 719.06C790.945 671.268 793.157 668.569 799.957 646.968C801.679 641.349 806.148 630.99 810.141 623.386C819.154 606.255 824.21 585.874 827.054 555.232C828.166 543.604 829.637 529.861 830.419 526.155C832.605 515.126 835.486 488.838 835.486 480.025C835.486 475.39 836.415 465.855 837.545 458.772C839.394 447.93 839.499 439.552 838.851 416.393C838.204 390.21 837.515 383.359 832.758 355.405C826.848 319.443 823.708 308.724 812.993 287.947C808.659 279.415 802.637 266.368 799.553 258.851C791.537 239.08 775.619 206.926 768.01 195.126C754.376 174.385 731.662 154.42 705.725 140.348C687.903 130.588 661.599 114.029 638.69 98.1562C627.908 90.7774 615.336 83.2301 610.078 80.9764C604.816 78.7788 588.726 71.4599 573.449 64.272C559.38 57.6643 542.426 50.7198 536.423 49.0838C531.654 47.7772 519.79 44.363 508.312 41.0461L501.59 39.1106C487.637 35.0786 471.768 31.3049 465.481 30.53C459.215 29.755 455.896 29.2833 454.968 27.8795C454.185 26.6702 454.822 24.3379 455.982 20.3134C457.404 15.1958 459.852 11.9949 463.243 10.7969C468.464 8.95879 476.192 11.628 486.2 18.7673C498.442 27.4826 501.653 28.4897 517.444 28.4897C534.162 28.4897 536.823 29.4967 549.077 40.4733C560.866 50.9781 563.542 52.0413 580.986 53.2318C588.984 53.7335 597.899 55.0101 600.444 56.0171C602.697 56.9755 608.577 61.8872 613.536 66.9974C625.209 79.3216 631.658 82.3466 649.866 84.0612C667.834 85.8694 672.58 88.4039 678.056 99.2082C681.102 105.206 690.171 114.898 695.066 117.403C697.495 118.698 703.906 120.671 708.693 121.861C722.271 125.294 726.313 128.634 737.538 145.656C744.907 156.906 750.873 161.646 765.319 167.692C774.836 171.6 781.769 182.447 786.121 200.232C789.545 214.267 793.79 220.478 805.074 227.868C815.864 235.063 817.877 238.758 820.441 256.133C821.545 262.999 823.757 272.422 825.546 276.27C828.226 282.006 836.927 292.761 840.157 292.754C840.475 292.821 841.898 293.72 843.309 295.135C844.922 296.76 845.745 300.814 845.745 306.422C845.745 310.544 845.3 315.497 844.39 320.94C842.822 330.779 844.566 339.329 850.674 351.313C855.027 359.74 855.296 360.878 855.15 371.712L855.161 371.72ZM503.023 46.7402C543.676 58.2034 545.97 58.9746 564.448 67.5552C574.515 72.1787 589.755 79.0858 599.561 83.3611C613.214 89.4858 622.5 94.7944 636.348 104.419C655.098 117.545 674.642 129.802 701.679 145.383C709.984 150.171 720.632 156.865 724.917 159.98C737.38 169.238 754.799 187.189 762.175 198.401C770.522 210.995 782.318 234.434 790.867 255.403C794.31 264.156 800.624 277.786 804.482 285.397C817.885 311.922 821.762 325.762 828.888 372.502C831.239 387.979 832.504 409.501 832.504 428.295C832.504 440.54 831.961 451.607 830.831 459.083C829.756 466.076 828.877 475.244 828.877 479.531C828.877 487.539 825.823 516.657 823.839 527.461C823.211 530.741 821.665 543.114 820.463 555.64C817.784 584.485 812.765 604.458 804.217 620.391C800.59 627.104 796.054 637.975 793.936 644.224C791.896 650.734 788.673 658.753 786.742 662.1C783.243 668.213 745.816 705.92 721.092 728.251C702.005 745.528 640.113 787.641 615.969 799.782C587.412 814.128 578.767 817.329 558.13 821.226L557 821.439C546.584 823.479 534.776 825.793 530.27 826.796C525.88 827.785 519.854 829.118 517.204 829.514L513.211 830.271L512.369 819.051C511.972 812.394 510.677 800.557 509.64 792.953C508.559 784.964 507.833 777.892 507.833 776.721C507.833 775.096 517.174 771.614 528.458 767.56C543.844 762.008 572.584 750.208 572.584 746.801C572.584 746.318 572.584 745.592 571.985 745.195C571.008 744.555 569.538 745.146 560.825 748.853C551.569 752.798 515.434 765.759 509.262 767.339C508.053 767.631 507.23 767.766 506.856 767.522C506.392 767.223 506.111 766.111 505.744 764.176C505.336 761.574 504.12 758.826 502.9 757.763C502.338 757.317 501.605 756.823 500.793 757.048C499.846 757.31 499.296 758.392 498.644 760.162C498.004 761.952 497.301 765.269 497.301 767.534C497.301 770.349 497.301 770.465 491.855 771.356C488.24 771.753 479.815 773.396 473.793 774.606C467.015 775.961 456.648 777.469 450.69 777.964L440.121 778.806L441.116 762.914C441.591 754.491 442.123 747.902 442.325 746.314C443.893 745.888 450.679 744.544 459.549 742.997C521.564 732.231 530.577 730.16 555.903 720.932C564.403 717.847 570.178 715.874 571.386 715.642C572.981 715.245 575.649 718.458 583.292 729.977C596.87 750.627 598.165 752.185 600.602 750.784C603.068 749.216 603.008 749.208 589.819 727.899C584.519 719.629 580.837 713.205 580.38 712.179C580.971 711.562 583.715 709.821 587.944 707.825C599.655 702.427 618.899 687.55 632.717 673.215C647.89 657.768 670.103 624.405 686.716 592.07C691.956 581.786 696.533 572.955 698.146 569.833C698.311 569.514 698.438 569.252 698.543 569.058C699.587 569.327 703 570.469 713.54 574.531C717.612 576.07 722.174 577.848 726.373 579.484C731.007 581.285 735.183 582.909 737.766 583.857C742.193 585.541 745.259 587.087 745.955 587.668C745.509 590.513 737.302 609.344 730 623.012C722.185 638.005 705.119 661.965 693.475 674.278C689.549 678.333 683.389 683.506 679.744 685.827C676.312 688.07 672.288 691.001 671.622 692.008C671.341 692.472 670.443 693.895 671.263 694.764C671.978 695.576 673.662 695.857 680.964 692.394C700.837 682.855 733.735 637.346 748.676 598.73C750.551 593.953 752.078 590.584 752.351 590.191C752.718 590.026 754.604 590.258 756.936 591.224C761.741 593.141 767.89 595.133 769.971 593.74C770.473 593.403 770.754 592.86 770.754 592.242C770.754 591.179 769.837 589.457 761.973 586.769L754.409 584.283L757.89 575.403C763.062 561.638 765.259 552.671 767.25 537.023C771.09 508.574 776.252 474.335 780.72 447.664C785.013 421.653 785.275 418.434 784.616 398.944C783.437 362.207 775.641 335.499 752.549 289.04C736.276 256.751 723.45 237.553 699.752 210.003C676.476 182.543 673.198 182.543 672.124 182.543C671.659 182.543 670.237 182.543 669.822 183.599C669.347 184.722 670.035 186.201 674.474 190.397C678.834 194.489 685.855 202.703 708.611 230.365C735.281 262.606 763.721 319.656 773.344 360.264C776.843 375.576 777.599 381.633 778.112 398.345C778.497 415.697 778.082 421.365 775.144 439.02C773.403 449.971 770.185 471.414 768.018 486.958C761.625 532.381 759.024 548.681 756.898 556.711C754.443 566.549 749.462 579.798 748.107 581.502C746.984 581.21 741.078 579.248 711.245 567.871L700.212 563.596L702.851 555.423C704.464 550.347 707.619 535.574 709.745 523.201C711.912 510.596 715.497 492.664 717.761 483.215C722.578 462.92 723.978 439.466 721.658 417.157C719.416 395.488 710.081 361.219 705.025 360.301C703.962 360.081 703.169 360.264 702.637 360.852C701.391 362.282 702.027 365.951 705.227 375.37C717.024 409.95 719.386 448.256 711.676 480.418C709.827 488.475 706.339 506.227 703.902 519.97C699.475 544.926 695.8 558.13 694.029 560.47C692.618 560.286 686.166 558.167 677.416 554.79C664.245 549.549 661.906 547.779 661.674 547.34C661.779 546.925 662.052 545.888 662.43 544.458C662.98 542.369 663.744 539.456 664.511 536.469C670.671 512.382 676.038 440.117 673.871 411.729L673.011 401.853L684.063 399.154C695.59 396.331 698.876 395.092 699.351 393.388C699.546 392.703 699.284 392.093 698.655 391.464C697.824 390.622 695.695 390.157 685.93 392.43C679.53 393.969 674.422 395.002 673.707 395.013C673.445 394.878 672.547 393.785 671.929 385.07C670.866 370.222 665.75 354.686 658.583 344.54C652.055 335.129 639.484 316.354 632.444 305.318C626.246 295.625 612.312 277.131 605.83 270.003C602.959 266.705 601.38 264.44 601.122 263.834C602.013 262.557 608.51 255.796 621.209 243.393L640.992 224.106L646.183 229.89C653.01 237.474 671.034 261.501 678.887 273.466C681.072 276.832 684.901 282.481 686.091 282.481C687.195 282.481 687.861 281.051 687.861 278.651C687.861 273.923 657.363 231.795 648.912 223.709L645.431 220.324L653.343 212.171C653.691 211.804 661.97 203.283 661.97 201.55C661.97 200.157 661.352 199.625 660.821 199.412C658.347 198.435 652.853 203.571 648.676 208.06L641.269 216.06L634.035 208.94C620.584 195.882 609.606 187.41 592.076 176.583C568.684 162.024 566.933 161.223 545.252 155.255C520.389 148.58 505.943 145.514 493.719 144.353C486.844 143.736 484.688 143.687 483.681 144.604C483.139 145.106 483.071 145.765 483.071 146.229C483.071 147.932 483.767 149.033 484.841 149.033C489.086 149.033 518.795 154.682 526.995 157.295C532.837 158.988 542.108 161.436 547.748 162.626C561.412 165.681 565.54 167.598 584.561 179.63C602.432 190.948 614.229 199.742 628.114 212.073L637.021 220.006L634.566 222.687C632.826 224.416 623.435 233.551 613.854 242.622L596.458 259.008L580.638 245.059C560.233 227.243 554.316 223.323 535.509 215.151C508.693 203.35 479.965 194.953 452.441 190.861L437.897 188.638V182.127C437.897 178.346 438.747 168.373 439.832 159.407C440.888 150.68 443.257 127.836 445.005 109.515C448.467 72.3022 451.85 41.6188 452.887 38.1484C453.216 37.044 454.058 36.329 454.365 36.329C462.962 36.5311 480.234 40.2449 503.034 46.7477L503.023 46.7402ZM443.163 738.651C442.381 737.955 442.516 732.807 442.815 722.954C442.853 720.932 442.883 719.105 442.913 717.432C443.08 706.54 446.867 700.917 454.275 700.563C455.454 700.495 456.76 700.435 458.201 700.36C481.263 698.949 491.855 695.632 529.046 678.142C532.867 676.341 542.71 671.717 544.353 671.13C547.138 674.05 567.135 705.343 568.374 708.776C567.696 709.454 564.118 711.416 558.403 713.46C539.989 720.067 526.841 723.886 513.05 726.645C501.957 728.813 452.4 737.468 444.189 738.677C443.657 738.756 443.298 738.782 443.163 738.659V738.651ZM435.251 701.555C436.546 703.79 437.07 726.259 435.678 735.379L434.885 739.568H415.932C375.773 739.568 354.923 734.627 314.577 715.549L299.723 708.496L304.015 700.623C312.081 685.854 321.142 671.118 322.62 669.883C323.945 668.839 338.014 675.637 344.765 678.909C356.746 684.76 369.59 690.47 373.999 691.9C386.649 696.078 406.77 699.717 420.812 700.364C429.042 700.78 434.136 701.263 435.251 701.555ZM551.449 668.116C552.224 667.603 555.435 666.124 565.645 662.081C573.576 659.064 583.314 654.13 587.798 651.266C597.151 645.373 622.679 620.459 629.188 610.901C631.636 607.382 639.536 592.804 646.46 579.076C653.672 565.029 659.069 555.708 660.405 554.285C661.322 554.614 663.886 555.573 667.262 556.82L692.394 566.096L691.013 569.511C689.987 571.697 684.467 582.722 678.46 594.227C664.051 621.795 642.815 653.927 630.146 667.382C624.693 672.953 615.273 681.777 608.97 686.891C598.749 695.063 580.406 705.897 576.933 705.927C574.235 704.669 552.314 672.081 551.453 668.116H551.449ZM203.828 334.47C208.267 336.308 242.569 356.352 245.963 359.088L242.984 367.998C241.232 372.884 238.605 383.097 237.134 390.76C235.443 398.817 233.451 406.97 232.501 409.7C231.262 412.979 230.113 420.815 229.6 426.879L228.874 437.403L219.783 438.245C214.678 438.623 204.109 439.02 196.526 439.02H183.85L184.692 429.822C185.059 424.416 186.859 414.712 188.678 408.202C190.34 401.973 192.672 389.495 193.88 380.371C196.238 360.968 201.396 338.535 203.832 334.474L203.828 334.47ZM317.212 372.03C309.39 380.997 303.682 387.207 302.376 388.398C300.973 387.702 295.549 384.227 293.693 383.048C284.479 376.714 284.381 376.392 289.681 365.037C296.246 350.643 327.908 312.262 337.433 307.204L337.8 306.991C339.6 305.947 339.657 305.898 352.228 326.754L354.085 329.839C354.878 331.194 355.862 332.849 356.106 333.38C355.256 334.376 350.866 338.506 344.107 344.368H344.095C337.018 350.635 324.959 363.046 317.212 372.034V372.03ZM252.973 341.804C249.638 350.489 248.149 352.249 247.752 352.589C246.39 351.717 241.12 348.486 236.816 345.858C232.273 342.976 225.027 338.835 219.727 335.818L217.077 334.298C211.381 331.261 206.875 328.289 206.478 327.825C205.329 326.121 213.548 309.825 229.357 287.43L231.464 284.491C243.281 267.932 258.541 254.023 277.244 242.764L296.429 231.11L300.576 237.156C304.764 243.299 317.642 267.211 318.522 270.003C318.095 270.363 316.733 271.224 314.188 272.508C303.589 277.547 287.566 289.358 279.898 297.793C269.328 309.305 258.508 326.994 252.966 341.804H252.973ZM258.737 345.169C261.184 338.58 263.774 332.111 264.53 330.749C267.15 325.758 279.722 307.283 283.214 303.296C289.479 296.243 304.738 284.619 313.443 280.265L321.49 276.184L325.685 283.739C328.017 287.898 331.576 293.761 333.507 296.37L336.329 300.316L333.429 302.472C331.348 303.865 324.514 310.454 318.818 316.171H318.806C305.337 329.771 287.166 354.929 282.765 366.025L279.853 373.483L267.263 365.164L254.403 356.546L258.737 345.169ZM355.563 321.105C352.101 315.096 348.28 308.5 346.869 306.179L344.713 302.734L351.221 299.706C362.206 294.723 386.904 289.018 404.079 287.471C426.205 285.652 457.468 287.771 472.341 292.106C508.731 302.641 531.456 316.53 546.026 337.162C558.347 354.697 585.036 408.992 585.036 414.69C585.036 414.776 585.025 414.843 585.017 414.903C584.864 415.386 582.513 416.925 576.226 418.58C562.745 421.945 562.647 421.608 560.918 415.959C556.925 402.426 543.231 378.99 531.628 365.816C522.878 355.786 503.779 340.22 495.122 336.091C483.374 330.618 463.838 323.845 449.664 320.371C424.222 314.269 387.813 317.818 366.791 328.469L361.338 331.254L355.563 321.109V321.105ZM653.848 545.94C647.175 543.387 615.875 531.074 611.762 529.333C612.024 528.075 613.05 524.373 614.517 520.165C619.921 503.932 622.058 488.662 622.717 461.789C622.87 455.859 622.949 451.022 622.949 446.923C622.949 437.017 622.455 431.477 621.276 425.371C620.153 418.976 619.932 415.068 620.086 414.218C622.754 412.998 652.598 405.282 661.61 403.665C663.602 403.335 664.926 403.103 665.372 403.433C665.757 403.713 665.952 404.758 666.214 406.45C668.759 421.017 667.703 468.558 664.271 497.317C661.633 518.791 658.111 543.709 654.428 545.895C654.226 546.011 654.062 546.03 653.848 545.944V545.94ZM600.063 272.051C612.024 286.262 621.976 299.811 631.347 314.718C636.097 322.426 642.448 332.381 646.666 338.977L649.23 342.983C662.681 363.54 665.428 371.169 665.552 388.331C665.611 393.04 665.63 396.668 664.923 397.383C664.825 397.488 664.679 397.577 664.215 397.577C661.981 397.577 628.252 405.334 621.28 407.453C620.43 407.685 619.955 407.723 619.712 407.581C619.218 407.281 618.869 405.859 618.562 404.38C616.366 393.789 606.68 366.58 600.373 353.308C591.11 333.71 585.433 325.092 573.954 313.206L564.575 303.715L567.352 300.612C569.171 298.669 576.682 290.504 584.07 282.474L596.979 268.322L600.063 272.055V272.051ZM549.634 298.302L556.472 304.172L553.695 307.392C550.783 310.892 549.855 313.419 551.045 314.531C552.254 315.661 554.885 314.452 558.25 311.221L561.352 308.212L570.309 317.421C584.175 331.67 597.095 355.629 606.668 384.898C611.163 398.835 613.214 405.211 611.59 408.101C610.467 410.104 607.383 410.838 602.267 412.066C596.687 413.331 592.675 413.788 591.784 413.634C591.252 412.743 589.377 408.303 586.918 401.883C579.164 382.034 554.533 336.746 545.742 326.163C537.029 315.62 515.745 301.293 498.319 294.214C452.947 275.855 383.389 276.281 346.45 295.142L341.584 297.579L337.542 291.38C329.447 278.535 328.084 273.796 328.518 273.088C330.27 271.22 343.216 266.686 354.174 264.103C369.5 260.573 410.658 253.879 417.088 253.879C421.729 253.879 421.954 254.179 422.882 257.514C423.907 260.85 425.221 262.565 426.673 262.475C428.054 262.396 429.031 260.783 429.592 257.698L430.386 253.539L440.229 254.272C453.71 255.279 500.048 268.105 515.366 275.061C524.263 279.22 540.607 290.275 549.627 298.294L549.634 298.302ZM440.543 195.623C454.728 195.623 497.626 206.293 521.085 215.645C550.3 227.299 555.656 230.601 578.381 250.884L592.858 263.864L578.846 279.003L573.265 285.135C567.82 291.114 563.13 296.269 562.165 297.235L562.135 297.272C561.409 298.085 561.012 298.452 560.626 298.47C559.582 298.53 557.176 296.363 552.804 292.424C544.024 284.405 522.874 271.31 510.112 265.998C497.173 260.764 450.881 248.702 440.353 247.803C438.186 247.62 432.441 247.137 431.883 246.257C431.872 246.238 431.853 246.208 431.872 246.13C432.744 244.4 434.705 221.994 434.918 219.441L437.067 195.616H440.547L440.543 195.623ZM422.19 247.945L412.286 248.189H412.275C392.334 248.848 350.02 257.02 334.207 263.268C328.822 265.32 325.397 266.383 324.364 266.585C323.717 265.462 321.445 261.149 318.668 255.47C315.565 249.271 310.786 240.641 308.001 236.231C304.973 231.503 303.746 228.366 303.746 227.834V227.816C304.038 227.572 306.152 226.393 319.585 220.834L325.146 218.55C332.632 215.473 341.12 211.972 346.139 209.835C368.468 200.344 384.838 196.417 408.716 194.86L421.557 194.115L421.935 220.957L422.186 247.945H422.19ZM189.857 510.798C186.549 499.421 184.056 477.629 184.056 460.094V444.374L207.013 444.617L229.903 444.995L230.124 449.514C231.943 477.67 238.19 504.64 247.288 523.501C249.859 528.79 253.662 536.618 253.662 538.457C253.662 538.584 253.643 538.677 253.594 538.749C253.594 538.749 253.546 538.779 253.381 538.779C252.356 538.779 239.002 544.301 230.3 548.026C218.009 553.241 209.914 555.966 208.338 556.082C206.317 552.821 192.151 518.214 189.857 510.802V510.798ZM253.662 524.032C250.432 517.32 246.495 507.201 244.9 501.484C241.622 489.519 237.28 459.569 237.164 450.498V444.445L242.048 444.097C244.668 443.913 248.171 443.412 248.171 441.049C248.171 438.833 245.581 438.234 241.412 437.994L235.873 437.657V429.395C235.873 423.503 236.936 416.996 238.949 410.583C240.866 404.702 243.167 395.174 244.286 389.379C247.101 373.708 251.405 363.63 252.767 363.367C256.424 364.723 275.803 378.275 276.702 379.686C276.72 379.746 276.739 379.832 276.739 379.948C276.739 380.828 276.14 383.344 274.632 387.02C271.529 394.313 265.638 420.275 265.242 428.467C265.163 431.282 265.638 439.967 266.555 447.608L267.031 452.202C267.794 459.543 268.741 468.685 269.272 474.806C270.665 489.152 278.468 518.218 282.551 518.218C283.027 518.218 283.7 518.14 284.146 517.552C285.16 516.178 284.273 512.812 279.61 497.849C276.776 488.845 275.5 481.597 274.725 470.164C274.164 460.996 272.783 447.915 272.113 442.266C270.594 430.773 270.672 429.391 273.921 412.687C275.698 403.313 278.532 392.411 280.111 388.873L282.615 383.041L291.365 388.439L300.175 393.748L297.971 397.162C296.609 399.475 293.648 406.603 291.56 413.114C286.676 427.392 284.636 449.387 286.358 469.108C287.952 485.667 290.295 494.858 295.999 506.908L300.108 515.983L259.444 536.076L253.662 524.032ZM506.818 487.509C502.11 485.94 499.711 485.757 498.569 486.898C498.21 487.247 498.087 487.7 498.135 488.186C498.281 489.029 499.112 490.324 504.326 492.858C507.788 494.588 510.535 496.059 511.384 496.572C510.37 499.736 499.056 521.76 495.777 526.376C492.151 531.329 482.704 537.083 481.466 536.66C480.964 536.158 478.041 531.467 474.194 524.751L468.119 514.344L473.194 508.896C475.515 506.351 479.605 501.787 480.784 499.717C484.209 494.038 490.994 471.182 490.994 465.264C490.994 457.001 487.398 443.266 483.887 438.054C482.293 435.52 479.168 429.631 477.079 425.191C473.58 417.404 469.448 412.298 462.853 407.547C460.967 406.192 460.918 406.068 469.508 393.512C474.545 386.073 478.771 380.345 479.343 379.892C480.987 379.447 492.012 387.039 498.289 393.976C507.967 404.694 515.366 419.927 518.065 434.7C518.634 437.68 518.888 442.565 518.888 448.174C518.888 459.551 517.825 473.825 516.122 480.781V480.792C515.067 485.397 513.956 488.658 513.473 489.508C512.582 489.332 509.951 488.598 506.818 487.516V487.509ZM398.704 504.737C398.394 504.127 397.832 503.797 397.159 503.797C395.852 503.797 393.135 506.796 392.2 507.945C390.343 510.199 388.42 511.524 387.963 511.573C385.362 511.573 373.498 503.176 368.168 497.044C358.699 486.307 357.202 481.567 356.689 460.85C356.188 444.213 357.124 435.681 359.949 431.327C360.462 430.533 360.937 430.223 365.451 432.476L366.39 432.989C367.947 433.831 369.676 434.779 370.316 435.205C370.036 436.385 369.04 440.226 367.82 444.752C363.228 462.452 364.89 471.605 374.725 482.466C379.617 487.756 383.517 490.406 390.777 493.405C404.442 499.133 414.113 501.357 425.243 501.357C436.374 501.357 440.386 499.721 449.698 491.065C457.067 484.091 460.365 478.277 463.235 467.124C465.084 459.899 465.073 458.195 463.108 448.911C460.585 437.583 456.3 429.111 451.068 425.056L448.246 422.784L456.989 410.849L461.195 414.02C467.472 418.771 468.033 419.583 476.001 435.542C486.675 456.735 487.345 462.935 481.02 482.803C477.259 494.719 474.83 499.11 468.651 505.168L464.755 508.851L461.719 504.239C459.234 500.66 457.359 499.122 455.974 499.556C454.563 499.99 454.563 502.053 454.563 502.719C454.563 504.074 456.09 506.897 457.561 508.851C458.856 510.581 459.515 511.929 459.668 512.442C457.105 514.531 446.644 520.539 445.327 520.655C444.949 520.655 444.368 519.91 444.368 518.787C444.368 516.833 443.538 515.47 442.347 515.47C441.236 515.47 440.315 516.96 440.315 518.787C440.315 519.783 440.005 520.558 439.357 521.146C437.538 522.857 432.983 523.399 425.034 522.857C415.576 522.216 400.512 518.484 396.245 515.729C395.19 515.051 394.98 514.905 396.71 512.21C398.682 509.297 399.494 506.212 398.701 504.733L398.704 504.737ZM403.106 421.395C403.918 423.154 405.512 424.925 407.002 424.925C407.863 424.925 408.712 424.828 409.128 424.15C409.64 423.319 409.195 422.233 408.024 419.942C407.492 419.003 407.462 418.647 407.511 418.471C407.597 418.288 408.005 417.996 409.502 417.64C414.869 416.266 426.984 417.823 433.492 420.706C435.367 421.578 438.212 422.892 438.358 423.559C438.369 423.57 438.369 423.577 438.369 423.589C438.369 423.693 438.29 423.907 437.916 424.364C436.793 425.651 436.573 427.767 437.018 429.114C437.355 429.975 437.725 430.758 438.496 430.934C439.424 431.136 440.334 430.383 442.055 428.747L444.619 426.396L449.058 431.544C452.868 435.849 454.358 439.061 456.019 446.508C458.351 456.694 458.175 461.49 455.129 470.991C452.992 477.509 441.573 491.005 435.412 494.285C422.597 500.881 383.232 487.928 375.234 474.473C370.941 467.278 370.294 460.011 372.981 449.372C374.721 442.715 375.919 438.994 377.266 438.402C377.768 438.189 378.457 438.343 379.568 438.945C380.923 439.679 382.903 440.454 383.928 440.454C385.534 440.454 385.938 439.698 386.036 439.256C386.065 439.151 386.073 439.054 386.073 438.945C386.073 437.553 384.089 436.149 382.282 435.318L379.718 434.176L382.136 431.671C386.612 426.797 396.313 420.152 399.494 419.328C401.41 418.92 402.144 419.145 403.102 421.399L403.106 421.395ZM451.951 408.183C451.633 408.831 450.181 410.931 447.64 414.027L443.586 419.145L438.934 416.824C432.388 413.612 413.937 410.265 408.54 411.328C405.37 412.006 405.243 412.024 402.35 405.649C399.546 399.255 399.846 399.09 401.025 398.405C403.779 396.799 419.465 397.117 429.379 399.528C438.264 401.561 450.596 406.656 451.951 408.183ZM398.775 412.41C398.787 412.429 398.787 412.447 398.787 412.459C398.787 412.593 398.701 412.702 398.652 412.769C398.457 412.983 398.15 413.118 397.81 413.118C397.151 413.118 395.141 413.118 376.256 428.044C373.587 430.133 373.479 430.219 368.733 428.092C365.657 426.621 364.238 425.558 364.1 425.374C364.1 423.364 377.308 410.418 386.021 405.14C390.71 402.422 393.611 400.913 394.629 400.527C395.721 402.609 398.768 411.111 398.775 412.414V412.41ZM445.551 547.337C444.402 546.457 444.447 543.769 444.488 539.329L444.507 527.652L454.081 522.932C461.712 519.177 463.617 518.937 463.916 519.457C464.253 519.94 465.327 521.662 466.671 523.83C467.82 525.687 469.216 527.941 470.627 530.176C474.107 535.623 475.799 538.438 476.331 539.441C475.103 540.081 470.653 541.725 463.265 543.851L461.049 544.491C451.786 547.179 447.146 548.535 445.547 547.337H445.551ZM398.158 523.194C406.455 526.889 426.164 530.273 433.878 529.344C435.813 529.142 438.47 528.843 438.818 529.142C438.837 529.172 438.837 529.221 438.837 529.277C438.837 529.595 438.635 530.322 438.537 530.651C438.111 532.381 437.744 537.498 437.744 541.833V549.321L429.873 548.497C425.098 547.984 417.552 546.854 412.728 545.914C403.686 543.941 382.633 536.948 380.294 535.177C380.362 532.953 389.385 520.996 391.2 520.794C391.792 520.794 394.37 521.617 398.154 523.194H398.158ZM356.353 498.575C354.739 496.95 352.292 497.212 346.21 498.777L338.889 500.694L336.037 494.64C332.46 486.835 330.409 474.155 330.409 459.828C330.409 441.865 332.003 435.935 342.639 414.548C353.568 392.55 354.515 391.505 376.185 377.384C398.068 362.971 414.345 359.141 436.277 363.244C450.675 365.973 473.486 374.898 475.043 377.26C474.366 378.316 470.518 383.752 465.219 390.996L456.147 403.552L452.58 401.549C450.241 400.168 443.586 397.409 438.085 395.533C429.11 392.321 425.891 391.868 411.549 391.734C398.659 391.734 396.133 391.464 395.669 390.098C395.37 388.694 393.098 385.414 391.126 382.94C388.255 379.323 387.17 379.282 386.492 379.72C386.065 379.99 384.771 380.824 388.61 388.252C390.137 391.288 391.107 393.815 391.163 394.103C390.901 394.616 388.225 396.694 384.112 399.086C379.875 401.467 372.188 407.742 366.985 413.065C360.08 420.118 357.112 421.799 356.465 421.713C354.676 421.084 353.583 421.676 353.149 422.428C352.715 423.211 352.771 424.644 354.492 426.074C355.664 426.973 355.874 427.186 353.901 430.851C352.007 434.382 351.618 438.938 351.618 457.877C351.618 479.845 351.753 480.976 355.177 488.239C359.451 497.467 368.475 507.429 377.603 513.029C379.789 514.392 381.743 515.65 383.049 516.504C383.58 516.841 383.94 517.084 384.19 517.237C383.599 518.301 381.9 521.067 379.463 524.571L374.396 531.943L371.061 530.191C364.803 526.99 350.368 516.021 348.025 512.674C347.194 511.446 346.536 510.45 346.633 510.177C346.712 509.84 347.744 509.26 349.032 508.541C353.411 506.343 356.622 503.258 357.019 500.84C357.195 499.979 356.933 499.167 356.353 498.575ZM346.536 519.806C350.046 523.22 356.989 528.918 362.056 532.205C366.832 535.222 369.572 537.835 369.89 538.561C369.553 539.49 367.771 543.417 366.061 547.228C364.717 550.257 362.734 555.449 364.553 556.303C364.998 556.505 366.372 557.164 369.699 550.575L370.706 548.583C373.62 542.806 379.132 541.393 387.241 544.346L390.044 545.353C405.228 550.721 422.796 554.465 432.777 554.465H437.748V560.084C437.748 563.858 438.358 579.083 441.191 579.083C441.76 579.083 443.085 579.083 443.085 566.179V554.618L448.044 553.817C451.214 553.255 459.927 550.916 466.525 548.999C475.818 546.221 479.617 545.566 481.08 546.453C483.052 547.719 484.28 548.28 485.066 547.681C485.792 547.131 485.627 546.075 485.152 544.604C484.815 543.338 485.56 542.081 490.414 538.936C498.046 534.069 502.694 527.821 511.137 511.049C514.861 503.599 517.432 499.556 518.226 498.803C519.502 499.17 524.88 500.99 530.827 503.243C531.321 503.438 542.897 507.818 544.29 506.444C544.503 506.242 544.589 505.931 544.54 505.632C544.23 503.842 535.7 499.623 532.047 497.882C519.506 492.031 519.562 491.732 520.135 489.264C523.548 476.139 524.701 466.9 524.701 452.681C524.701 433.333 522.99 425.404 515.561 410.257C505.011 388.503 491.694 376.953 464.669 366.119C445.057 358.254 432.478 355.7 416.561 356.348C405.516 356.872 402.462 357.568 393.132 361.728C380.597 367.28 362.681 378.896 353.164 387.63C347.711 392.572 344.878 396.986 337.209 412.462C332.018 422.986 327.325 434.206 326.535 438.039C324.495 447.915 324.716 473.743 326.932 484.064C327.938 488.785 330.046 495.161 331.524 497.972L333.747 502.431L320.509 507.47C312.144 510.731 306.197 512.809 305.569 512.887C303.828 512.161 296.826 496.318 294.408 485.581C291.429 472.609 291.594 433.367 294.659 421.934C297.541 411.526 304.038 397.192 305.355 396.428C305.771 396.428 307.919 397.203 310.093 398.431C312.23 399.438 315.18 400.366 316.651 400.037C316.969 399.958 317.957 399.738 318.091 398.888C318.103 398.82 318.11 398.753 318.11 398.686C318.11 397.836 317.145 396.945 314.543 395.35C312.193 393.86 309.495 392.351 308.634 392.033C308.623 392.003 308.623 391.966 308.623 391.928C308.623 390.109 317.788 379.761 323.893 372.861C335.892 359.437 355.757 340.883 359.324 339.76C359.721 339.778 361.211 341.066 363 344.102C366.211 349.782 367.285 349.782 367.64 349.782C368.25 349.782 368.733 349.49 369.021 348.969C370.009 347.168 368.374 343.137 366.439 340.127L364.156 336.413L371.697 332.871C383.842 327.319 403.087 323.868 421.905 323.868C435.075 323.868 439.66 324.448 452.539 327.727C479.837 334.904 494.748 341.59 509.524 353.245C527.964 368.036 538.38 380.686 547.935 399.906C553.302 410.4 556.319 419.998 556.319 422.039C556.319 422.166 556.307 422.252 556.289 422.331C555.813 422.69 552.374 423.821 548.029 424.779C544.065 425.651 539.383 427.351 538.002 428.437C537.276 429.066 536.524 429.702 536.853 430.477C537.25 431.357 538.257 431.26 543.496 430.612C547.239 430.11 552.568 429.586 555.072 429.586C557.645 429.509 559.212 430.992 559.773 434.037C561.184 442.337 559.792 480.864 557.715 491.29C555.151 503.584 543.006 529.865 534.911 540.62C522.26 557.636 511.092 564.618 482.974 573.131C461.611 579.533 452.292 580.618 433.126 578.934C400.527 576.081 377.869 570.286 357.378 559.586C348.066 554.652 318.919 530.655 316.916 526.99C317.923 526.159 322.223 523.448 328.627 519.937L340.319 513.591L346.547 519.809L346.536 519.806ZM324.14 541.336C331.692 548.224 340.065 555.285 342.853 557.314C351.004 563.36 375.275 574.598 388.42 578.409C405.082 583.198 430.146 585.964 450.813 585.305C466.854 584.646 469.583 584.145 487.27 578.533C509.966 571.326 516.95 567.863 526.658 559.069C539.443 547.191 549.664 531.145 558.822 508.537C565.136 493.341 568.639 461.509 566.259 440.439C565.368 432.334 565.226 427.943 565.806 427.381C566.375 427.003 570.952 425.696 577.352 424.248C585.844 422.282 587.469 422.159 588.258 423.435C589.755 426.183 588.412 471.422 586.585 479.733C584.998 486.61 582.641 498.343 584.534 499.271C585.058 499.649 585.567 499.754 586.061 499.571C587.386 499.107 588.284 496.864 590.702 488.108C594.726 473.327 596.058 460.385 595.392 442.161C595.006 432.69 594.617 423.735 594.348 422.275C594.336 422.177 594.329 422.08 594.329 422.005C594.329 420.923 595.403 420.111 601.87 418.273C608.513 416.33 611.792 415.506 613.173 416.307C613.907 416.741 614.266 417.778 614.67 419.538C618.016 435.033 617.956 472.305 614.535 492.076V492.087C613.529 498.421 610.804 508.949 608.472 515.545L604.692 526.765L591.144 521.831C576.357 516.608 575.294 517.66 574.841 518.117C574.504 518.447 574.388 518.832 574.463 519.383C574.639 520.109 575.129 522.344 592.334 528.495C598.977 530.902 601.242 531.969 601.462 532.111C601.474 532.16 601.481 532.227 601.481 532.306C601.481 535.518 589.104 559.526 582.046 567.777C566.659 586.099 552.909 601.209 547.823 605.387C540.82 611.114 516.134 626.396 503.794 632.626C487.413 640.828 481.552 641.749 446.876 641.622C410.37 641.622 403.08 640.461 376.024 630.267C338.833 616.221 314.753 601.414 290.153 577.444C276.151 563.843 268.906 554.48 268.906 553.001V552.963C269.448 552.488 276.196 548.61 285.972 543.368C295.168 538.434 304.315 533.481 306.841 532.089L311.183 529.622L324.14 541.336ZM308.387 600.95C328.152 616.513 365.75 635.067 393.977 643.19C408.858 647.582 446.285 649.989 466.783 647.863C491.451 645.249 499.15 642.341 530.15 623.806C547.77 613.289 555.447 606.577 575.784 583.905C591.702 566.302 595.841 560.537 603.468 545.409C607.23 538.202 609.097 535.563 609.659 535.08C611.04 535.428 619.03 538.378 629.502 542.507C640.285 546.85 649.75 550.564 650.981 550.923C652.074 551.417 652.692 551.968 652.759 551.979C652.564 552.802 648.406 561.537 641.048 576.092H641.037C627.017 603.777 624.715 607.288 610.336 622.967C598.809 635.396 586.567 645.351 576.731 650.273C567.401 655.062 549.559 661.853 546.745 662.19C546.079 660.808 543.912 657.323 542.568 655.185C540.652 652.138 538.013 648.694 536.322 649.663C534.241 650.813 536.95 656.589 538.189 659.008C540.008 662.635 540.85 664.694 541.071 665.439C537.763 667.364 510.628 679.744 499.064 684.573C483.902 690.803 476.368 692.428 456.678 693.715L444.039 694.565L444.754 684.274C445.353 676.768 445.121 667.521 442.501 666.312C442.104 666.128 441.322 665.963 440.412 666.862C439.125 668.127 438.216 680.56 438.122 681.979L437.396 694.591L423.608 693.858C408.166 692.959 387.143 689.186 374.714 685.086C364.852 681.758 329.42 664.028 328.017 662.201C327.852 661.864 328.103 660.857 328.664 660.075C330.405 657.967 339.454 640.798 339.454 639.143C339.454 637.654 338.691 637.227 338.234 637.103C336.27 636.56 333.021 639.967 330.974 643.449C330.064 645.073 328.893 647.181 327.733 649.293C326.561 651.393 325.401 653.501 324.503 655.114L321.475 660.348L301.119 650.154C288.944 644.003 276.024 636.65 271.694 633.389C257.749 623.031 221.449 584.107 220.363 579.577C223.556 577.402 259.062 558.163 263.703 556.071C271.091 566.942 292.548 588.551 308.379 600.954L308.387 600.95ZM216.018 585.388C227.16 601.156 257.116 631.682 270.346 640.776C274.737 643.707 287.413 650.663 298.005 655.971C312.249 663.178 316.097 665.364 317.133 666.023C316.505 667.173 314.472 670.501 311.718 674.75C308.69 679.411 303.39 688.448 299.891 694.88L294.146 705.647L288.558 702.734C285.078 700.915 277.727 696.418 272.195 692.675C266.712 688.98 259.092 683.989 255.331 681.773C240.914 672.972 212.066 642.973 199.214 623.446C193.993 615.408 190.329 609.351 190.093 608.696C189.842 608.03 189.453 607.614 188.944 607.487C188.12 607.285 187.331 607.872 186.721 608.434C186.208 608.928 185.946 609.632 185.927 610.542V610.62C185.927 617.602 201.527 639.125 221.542 659.73C237.374 675.806 241.502 679.194 261.817 692.6C272.91 699.893 285.789 708.114 287.84 708.986C289.494 709.645 290.624 710.165 291.156 710.438C290.497 711.966 287.724 717.218 283.719 724.29C280.654 729.793 275.654 739.273 276.623 740.684C277.3 741.796 278.075 742.32 278.992 742.29C281.234 742.204 283.906 738.516 289.531 727.682C294.172 718.686 296.792 714.605 297.559 713.86C298.663 714.208 303.585 716.406 310.973 720.101C348.482 739.119 369.845 744.652 410.352 745.831L435.154 746.588V751.84C435.154 754.936 434.795 762.423 434.245 768.631L433.53 778.817L401.066 778.053C360.395 777.028 350.724 775.878 332.1 769.93C282.888 754.124 246.48 734.323 210.344 703.73C180.908 678.939 168.056 663.433 155.361 637.391C152.161 630.758 151.098 630.758 150.69 630.758C150.148 630.758 149.695 631.038 149.451 631.533C147.468 635.564 159.452 660.104 168.367 672.062C174.003 679.886 201.399 705.83 219.783 720.782C240.334 737.438 266.45 752.016 299.621 765.317C341.64 782.108 358.183 785.069 410.228 785.069H433.852V790.168C433.852 794.395 434.712 796.776 436.258 796.881C437.826 796.997 439.073 794.638 439.69 790.408L440.502 785.399L451.199 784.672C457.281 784.159 469.631 782.359 478.748 780.64C490.122 778.338 495.186 777.41 496.29 777.294C497.181 778.907 497.297 790.816 497.297 803.507C497.297 819.137 496.754 830.222 496.35 831.51C494.92 832.951 476.776 836.249 449.982 840.749C420.449 845.799 400.123 844.414 362.988 834.8C353.695 832.479 337.924 828.987 327.837 827.014C293.188 820.631 261.046 807.464 234.877 788.921C229.267 784.976 215.419 775.893 204.031 768.687C171.657 748.489 152.315 731.864 135.065 709.413C133.092 706.706 123.769 691.904 114.256 676.169L97.6607 648.667L115.446 637.515C133.579 626.16 144.331 620.26 191.163 595.177L214.293 582.797L216.026 585.41L216.018 585.388ZM484.138 92.3684C488.315 91.3913 512.657 94.0119 524.345 96.3742C538.388 99.4515 565.271 109.627 583.071 118.593C600.991 127.559 607.024 131.382 618.948 141.362C619.296 141.643 626.983 147.951 626.983 149.565C626.983 150.669 626.46 151.16 626.025 151.384C624.48 152.167 621.111 150.957 609.76 142.515C596.193 132.175 564.56 115.594 544.679 108.41C528.481 102.461 517.833 100.17 497.2 98.2161C481.971 96.8234 480.683 95.8089 480.586 94.6259V94.5286C480.586 93.5028 481.948 92.9337 484.134 92.3722L484.138 92.3684ZM297.746 540.096C300.336 539.168 305.134 544.709 306.527 546.412C333.361 579.705 390.628 610.021 426.677 610.021C441.52 610.021 498.566 597.689 512.646 591.43C516.261 589.738 525.341 583.789 532.452 578.428C542.527 570.795 547.613 565.823 553.418 557.969C556.618 553.607 561.607 547.269 562.674 546.846H562.685C563.826 546.419 564.388 546.884 564.609 547.194C566.427 549.643 559.339 560.29 555.353 565.572C549.454 573.475 523.016 594.009 514.371 597.416C511.294 598.693 501.743 601.246 494.333 603.028C485.803 605.061 475.38 607.573 470.399 608.977C455.331 612.971 438.844 615.352 426.291 615.352C394.382 615.217 354.212 597.678 321.43 569.582C312.302 561.795 296.567 545.33 296.567 542.219C296.567 540.74 297.312 540.254 297.746 540.1V540.096ZM403.749 449.772C403.749 455.594 406.942 461.804 413.226 467.869C418.844 473.208 420.663 474.147 425.382 474.147C429.851 474.147 432.13 473.122 436.483 469.164C445.196 461.378 447.546 453.329 443.511 445.242C441.27 440.608 433.743 434.97 426.771 432.686C420.427 430.567 414.248 432.338 408.918 437.803C405.467 441.45 403.746 445.512 403.746 449.768L403.749 449.772ZM431.104 442.315C436.471 445.478 438.889 447.994 438.889 451.475C438.889 453.497 438.066 455.856 436.531 458.854C433.668 464.399 429.993 467.416 425.902 467.558C421.104 467.734 416.078 463.931 411.744 456.851C408.368 451.543 408.727 447.032 412.941 442.73C417.68 438.118 423.78 437.972 431.101 442.315H431.104ZM110.337 551.425C110.019 551.541 109.652 551.578 109.196 551.309C106.894 549.984 102.882 540.388 101.673 534.458C101.313 532.205 98.5402 522.782 95.213 512.52C87.185 487.778 84.7298 477.835 82.11 459.281C80.5418 447.896 79.7521 435.475 79.7521 422.825C79.7521 409.149 80.669 395.2 82.4992 381.977C84.0187 370.855 85.5831 353.383 85.9911 343.062C87.0166 314.943 88.0982 311.016 105.217 272.961C117.209 246.515 145.26 203.579 160.792 187.896C180.276 168.542 222.362 140.685 249.099 129.442C254.661 126.994 268.565 120.69 280.148 115.205C291.927 109.634 304.371 104.438 307.893 103.618C313.522 102.244 355.481 97.1267 360.481 96.9919H360.499C361.69 96.9919 362.539 97.6882 362.723 98.8113C363.022 100.193 362.056 102.121 360.084 102.806C359.437 103.098 356.525 103.716 340.252 105.689C312.885 108.657 305.363 110.63 286.612 119.742C276.892 124.328 264.295 130.169 258.074 132.838C226.947 146.158 192.761 167.92 170.994 188.275C157.786 200.588 129.365 239.908 119.48 259.585C110.573 277.259 98.4279 305.726 96.6015 312.427C94.079 321.917 92.0954 339.202 92.0954 351.747C92.0954 356.988 91.2233 367.609 90.1529 375.415C83.4424 422.956 86.5076 464.504 99.8314 506.201C103.885 518.739 111.108 544.293 111.909 548.917C112.062 549.808 111.482 550.841 110.341 551.421L110.337 551.425ZM134.814 347.037H135.016C135.518 347.037 135.944 347.213 136.262 347.55C137.269 348.625 137.366 351.148 136.786 362.447C136.262 370.263 135.375 382.18 134.698 388.911C134.069 395.477 133.549 411.826 133.549 425.367C133.549 447.275 133.983 452.374 137.419 470.838C139.661 482.773 141.962 494.217 142.456 496.587C143.733 501.802 144.275 508.185 142.932 509.877C142.662 510.225 142.292 510.428 141.888 510.428C137.265 510.428 127.673 461.842 126.269 440.443C126.142 438.432 126.086 435.685 126.086 432.529C126.086 425.333 126.385 416.026 126.909 408.606L127.044 406.671C129.779 366.883 132.37 347.001 134.818 347.026L134.814 347.037Z" fill="#1B1B1E" fill-opacity="0.12"/>
</svg>
